<svg width="1242" height="176" viewBox="0 0 1242 176" fill="none" xmlns="http://www.w3.org/2000/svg">
<path d="M604.78 79.92C613.32 71.28 616.82 62.1 616.82 48.62C616.82 20 594.91 0 563.56 0H476.97V172.23H570.64C603.57 172.23 626.57 150.96 626.57 120.5C626.57 103.04 619.43 89.76 604.78 79.92ZM508.51 30.01H561.32C577.35 30.01 584.81 36.13 584.81 49.29C584.81 62.45 577.37 68.34 562.65 68.34H508.51V30.01ZM568.64 142.23H508.52V98.35H569.31C589.25 98.35 594.58 112.28 594.58 120.49C594.58 133.5 584.16 142.22 568.64 142.22V142.23Z" fill="white"/>
<path d="M901.47 37.9502C861.68 37.9502 831.68 68.0802 831.68 108.01C831.68 126.85 838.72 144.02 851.5 156.37C864.16 168.6 881.61 175.35 900.65 175.35C930.05 175.35 953.14 160.52 964.1 134.63H932.25C925.73 143.45 914.73 148.47 901.74 148.47C882.43 148.47 867.39 136.09 863.93 117.53H966.5L966.63 116.58C967.46 110.55 967.46 106.36 967.46 102.32C967.46 65.0302 939.7 37.9602 901.45 37.9602L901.47 37.9502ZM865.44 92.5302C871.23 72.3602 887.73 65.1202 901.46 65.1202C919.98 65.1202 932.71 75.3402 935.76 92.5302H865.43H865.44Z" fill="white"/>
<path d="M672.9 0.00976562H641.34V172.23H672.9V0.00976562Z" fill="white"/>
<path d="M1016.46 30.0095V68.4995H1098.55V98.4995H1016.46V172.23H984.899V0.0195312H1098.55V30.0095H1016.46Z" fill="white"/>
<path d="M1146.88 41.2803H1115.32V172.24H1146.88V41.2803Z" fill="white"/>
<path d="M1241.54 70.39V41.27H1200.43V0H1168.87V127.35C1168.87 152.09 1189 172.23 1213.75 172.23H1241.54V143.11H1216.65C1207.71 143.11 1200.43 135.84 1200.43 126.89V70.39H1241.54Z" fill="white"/>
<path d="M785 113.35C785 136.32 774.57 148.96 755.64 148.96C736.71 148.96 726.28 136.31 726.28 113.35V41.29H694.72V115.26C694.72 133.31 700.42 148.47 711.19 159.1C721.97 169.74 737.33 175.36 755.63 175.36C773.93 175.36 789.3 169.74 800.07 159.1C810.84 148.47 816.54 133.31 816.54 115.26V41.29H784.98V113.35H785Z" fill="white"/>
<path d="M1146.87 24.1998L1115.32 29.0598V0.00976562H1146.87V24.1998Z" fill="white"/>
<path d="M189.76 47.82C189.76 59.31 185.7 69.86 178.94 78.11L0 105.55V0H141.94C155.15 0 167.1 5.35999 175.75 14.01C184.41 22.67 189.76 34.62 189.76 47.83V47.82Z" fill="white"/>
<path d="M193.37 127.91C193.37 152.39 173.53 172.23 149.05 172.23H0V122.52L178.83 95.0996C179.36 95.5696 179.88 96.0696 180.38 96.5696C188.41 104.59 193.37 115.67 193.37 127.9V127.91Z" fill="white"/>
<path d="M398.08 0V44.52L205.04 74.11V0H398.08Z" fill="white"/>
<path d="M398.08 61.4902V114.82H304.08V172.22H205.04V91.0902L398.08 61.4902Z" fill="white"/>
</svg>
